<?xml version="1.0" encoding="iso-8859-1"?>
<!-- Generator: Adobe Illustrator 19.0.0, SVG Export Plug-In . SVG Version: 6.00 Build 0)  -->
<svg version="1.1" id="Capa_1" xmlns="http://www.w3.org/2000/svg" xmlns:xlink="http://www.w3.org/1999/xlink" x="0px" y="0px"
	 viewBox="0 0 512 512" style="enable-background:new 0 0 512 512;" xml:space="preserve">
<polygon style="fill:#FFEA84;" points="260,206 290,206 290,146 260,146 260,86 260,26 0,26 0,86 0,146 30,146 30,206 0,206 0,266 
	0,326 30,326 30,386 0,386 0,446 260,446 260,386 290,386 290,326 260,326 260,266 "/>
<g>
	<polygon style="fill:#FFDC40;" points="260,206 290,206 290,146 260,146 260,86 260,26 145,26 145,446 260,446 260,386 290,386 
		290,326 260,326 260,266 	"/>
	<rect x="30" y="326" style="fill:#FFDC40;" width="260" height="60"/>
	<rect y="206" style="fill:#FFDC40;" width="260" height="60"/>
	<rect y="86" style="fill:#FFDC40;" width="260" height="60"/>
</g>
<g>
	<rect x="145" y="206" style="fill:#FFAB15;" width="115" height="60"/>
	<rect x="145" y="86" style="fill:#FFAB15;" width="115" height="60"/>
	<rect x="145" y="326" style="fill:#FFAB15;" width="145" height="60"/>
</g>
<path style="fill:#76CC5B;" d="M367,486c-79.953,0-145-65.047-145-145s65.047-145,145-145s145,65.047,145,145S446.953,486,367,486z"
	/>
<path style="fill:#599944;" d="M367,196v290c79.953,0,145-65.047,145-145S446.953,196,367,196z"/>
<path style="fill:#F2F2F4;" d="M412,371c0-24.813-20.187-45-45-45c-8.271,0-15-6.729-15-15c0-3.352,1.078-6.519,3.119-9.158
	c3.172-4.104,8.578-6.162,14.097-5.373l30.663,4.38l4.242-29.699L382,267.991V251h-30v17.812c-8.08,2.783-15.296,7.8-20.617,14.682
	C325.245,291.435,322,300.947,322,311c0,24.813,20.187,45,45,45c8.271,0,15,6.729,15,15c0,7.503-5.592,13.896-13.007,14.87
	c-0.75,0.099-1.691,0.101-2.799,0.005l-32.913-2.821l-2.562,29.891L352,414.769V431h30v-17.58C399.608,407.178,412,390.319,412,371z
	"/>
<g>
	<path style="fill:#DFDFE1;" d="M367,251v45.307c0.733,0.005,1.473,0.055,2.216,0.161l30.663,4.38l4.242-29.699L382,267.991V251H367
		z"/>
	<path style="fill:#DFDFE1;" d="M367,326v30c8.271,0,15,6.729,15,15c0,7.503-5.592,13.896-13.007,14.87
		c-0.561,0.074-1.229,0.093-1.993,0.059V431h15v-17.58c17.608-6.242,30-23.101,30-42.42C412,346.187,391.813,326,367,326z"/>
</g>
<g>
</g>
<g>
</g>
<g>
</g>
<g>
</g>
<g>
</g>
<g>
</g>
<g>
</g>
<g>
</g>
<g>
</g>
<g>
</g>
<g>
</g>
<g>
</g>
<g>
</g>
<g>
</g>
<g>
</g>
</svg>
